<svg xmlns="http://www.w3.org/2000/svg" version="1.1" width="600" height="600"><circle cx="602.9265992286191" cy="335.8627353684965" fill="green" r="3"></circle><circle cx="-28.493797121110475" cy="422.78478941463294" fill="red" r="3"></circle><circle cx="392.28070235607" cy="8.754833457407749" fill="blue" r="3"></circle><circle cx="252.41829129711004" cy="522.8728244431809" fill="black" r="3"></circle><circle cx="348.42811636869027" cy="468.19822692605965" fill="blueviolet" r="3"></circle><circle cx="460.61361897079644" cy="538.8342993459432" fill="darkred" r="3"></circle><circle cx="557.644938385586" cy="276.2424544193638" fill="green" r="3"></circle><circle cx="64.07964829969562" cy="471.82864849288234" fill="red" r="3"></circle><circle cx="336.9185504732252" cy="151.77521796902607" fill="blue" r="3"></circle><circle cx="259.5593184655454" cy="436.0881765655384" fill="black" r="3"></circle><circle cx="341.1484037728206" cy="481.6703076167528" fill="blueviolet" r="3"></circle><circle cx="467.38552214133097" cy="551.7685180588019" fill="darkred" r="3"></circle><circle cx="585.1699836064628" cy="372.268579997815" fill="green" r="3"></circle><circle cx="-33.97654324101589" cy="454.84087196006425" fill="red" r="3"></circle><circle cx="387.66475504149116" cy="88.63725513753403" fill="blue" r="3"></circle><circle cx="154.61690292557904" cy="543.1172651003515" fill="black" r="3"></circle><circle cx="303.37273322328133" cy="414.44160135544155" fill="blueviolet" r="3"></circle><circle cx="524.3923659849854" cy="554.0344171899633" fill="darkred" r="3"></circle><circle cx="538.889830932151" cy="405.5424804648693" fill="green" r="3"></circle><circle cx="51.890384889330264" cy="558.7549965239202" fill="red" r="3"></circle><circle cx="387.83483927013015" cy="93.169300463024" fill="blue" r="3"></circle><circle cx="214.3722033557354" cy="531.2251778865669" fill="black" r="3"></circle><circle cx="352.26020052562023" cy="555.4944091151922" fill="blueviolet" r="3"></circle><circle cx="401.50642534238034" cy="577.7176810500224" fill="darkred" r="3"></circle><circle cx="574.076877826513" cy="368.69367484866905" fill="green" r="3"></circle><circle cx="34.81637359577854" cy="476.24406674255636" fill="red" r="3"></circle><circle cx="366.30334502802623" cy="81.79805188273318" fill="blue" r="3"></circle><circle cx="197.30043971744752" cy="521.7711584382862" fill="black" r="3"></circle><circle cx="355.9840220626014" cy="501.4202527371694" fill="blueviolet" r="3"></circle><circle cx="501.6603980307275" cy="542.813111726626" fill="darkred" r="3"></circle><circle cx="571.055098949851" cy="377.2292197266851" fill="green" r="3"></circle><circle cx="-24.38417418418377" cy="538.5400977555291" fill="red" r="3"></circle><circle cx="394.87907610182134" cy="104.26609220179" fill="blue" r="3"></circle><circle cx="237.2520630988115" cy="528.1596627682663" fill="black" r="3"></circle><circle cx="354.31613169119123" cy="384.20877879606473" fill="blueviolet" r="3"></circle><circle cx="430.103986009473" cy="485.12773490841755" fill="darkred" r="3"></circle><circle cx="576.8139584735189" cy="372.60471250212015" fill="green" r="3"></circle><circle cx="28.198886615440642" cy="409.76146689387053" fill="red" r="3"></circle><circle cx="431.9476846098971" cy="92.46420365468923" fill="blue" r="3"></circle><circle cx="255.57799695632636" cy="553.608147950913" fill="black" r="3"></circle><circle cx="266.335489834681" cy="465.83094832608253" fill="black" r="3"></circle><circle cx="449.00527941933495" cy="541.1528364703291" fill="darkred" r="3"></circle><circle cx="573.721467204586" cy="403.0030105626437" fill="green" r="3"></circle><circle cx="118.41902889209985" cy="518.1617521331453" fill="red" r="3"></circle><circle cx="358.0425535646269" cy="10.326042918981308" fill="blue" r="3"></circle><circle cx="177.13470925295368" cy="598.3847801026702" fill="black" r="3"></circle><circle cx="321.98762354048495" cy="471.70797434145055" fill="blueviolet" r="3"></circle><circle cx="440.994463951433" cy="552.5860970547346" fill="darkred" r="3"></circle><circle cx="549.0259040765077" cy="418.91863190199183" fill="green" r="3"></circle><circle cx="-41.119829799171015" cy="511.64390874557523" fill="red" r="3"></circle><circle cx="321.19424099886055" cy="137.86617989531103" fill="blue" r="3"></circle><circle cx="278.02183410246766" cy="523.5827833506544" fill="black" r="3"></circle><circle cx="324.57207761201585" cy="519.1909443311423" fill="blueviolet" r="3"></circle><circle cx="457.8589109011915" cy="548.6408525471531" fill="darkred" r="3"></circle><circle cx="506.39314542731586" cy="357.0997045210788" fill="green" r="3"></circle><circle cx="118.99172447342309" cy="427.2288879968276" fill="red" r="3"></circle><circle cx="363.0949813086424" cy="33.44586432730257" fill="blue" r="3"></circle><circle cx="199.98075655890108" cy="494.0858933046321" fill="black" r="3"></circle><circle cx="338.09430564659044" cy="498.48596704985044" fill="blueviolet" r="3"></circle><circle cx="473.73358125158734" cy="578.416414310471" fill="darkred" r="3"></circle><circle cx="651.1206818123604" cy="379.19914725971444" fill="green" r="3"></circle><circle cx="113.3536293944201" cy="491.0288716303303" fill="red" r="3"></circle><circle cx="366.9142438101762" cy="30.6916415531594" fill="blue" r="3"></circle><circle cx="220.9711194809193" cy="509.7643789475849" fill="black" r="3"></circle><circle cx="280.2517745085738" cy="516.309737746996" fill="black" r="3"></circle><circle cx="494.67842893943316" cy="504.13510468765145" fill="darkred" r="3"></circle><circle cx="591.3261351978426" cy="330.3740073631845" fill="green" r="3"></circle><circle cx="23.820797583819623" cy="488.049998842313" fill="red" r="3"></circle><circle cx="328.09166334672597" cy="45.4697120833646" fill="blue" r="3"></circle><circle cx="265.9679386504437" cy="533.1748719025903" fill="black" r="3"></circle><circle cx="314.1055787255212" cy="450.4451480884501" fill="blueviolet" r="3"></circle><circle cx="485.46782663678175" cy="543.5574754162933" fill="darkred" r="3"></circle><circle cx="590.4459462282445" cy="289.65839559281665" fill="green" r="3"></circle><circle cx="20.92587146825312" cy="466.14255858253256" fill="red" r="3"></circle><circle cx="338.6220662985854" cy="-14.876814628740611" fill="blue" r="3"></circle><circle cx="282.66815610479443" cy="531.3870160270031" fill="black" r="3"></circle><circle cx="408.884229804994" cy="498.8532417663661" fill="blueviolet" r="3"></circle><circle cx="442.8926496042234" cy="520.4644942304312" fill="darkred" r="3"></circle><circle cx="567.3527147624425" cy="363.59952276307826" fill="green" r="3"></circle><circle cx="23.7430086377624" cy="524.2983659877855" fill="red" r="3"></circle><circle cx="363.69640231940383" cy="91.18605492109438" fill="blue" r="3"></circle><circle cx="187.10283807939965" cy="454.71620950337257" fill="black" r="3"></circle><circle cx="344.53971216902494" cy="452.92647477167696" fill="blueviolet" r="3"></circle><circle cx="450.7752350374693" cy="526.0333610475908" fill="darkred" r="3"></circle><circle cx="632.6157112626531" cy="445.8084922000065" fill="green" r="3"></circle><circle cx="76.18497888761917" cy="495.66489587880466" fill="red" r="3"></circle><circle cx="384.9218845296209" cy="33.397811571337805" fill="blue" r="3"></circle><circle cx="201.5817493551556" cy="581.1988741011074" fill="black" r="3"></circle><circle cx="300.7056830975345" cy="487.40586554901887" fill="blueviolet" r="3"></circle><circle cx="480.5232038282356" cy="568.2960278482325" fill="darkred" r="3"></circle><circle cx="570.2986606780487" cy="304.51736699232885" fill="green" r="3"></circle><circle cx="28.652665398710866" cy="465.6578412881663" fill="red" r="3"></circle><circle cx="377.5373576404743" cy="12.098513872587183" fill="blue" r="3"></circle><circle cx="231.2392458952943" cy="434.71910906455446" fill="black" r="3"></circle><circle cx="390.08206340014857" cy="450.29603592345904" fill="blueviolet" r="3"></circle><circle cx="475.485613076934" cy="537.3410679034465" fill="darkred" r="3"></circle><circle cx="538.3623083679614" cy="357.009595984807" fill="green" r="3"></circle><circle cx="27.726833686464097" cy="548.905010887911" fill="red" r="3"></circle><circle cx="399.3140005652482" cy="62.305419575717735" fill="blue" r="3"></circle><circle cx="293.04690884957455" cy="521.7726619788588" fill="black" r="3"></circle><circle cx="363.2062151333708" cy="522.9636919256595" fill="blueviolet" r="3"></circle><circle cx="445.13932378114407" cy="542.4034311088926" fill="darkred" r="3"></circle><circle cx="573.2049091728743" cy="391.4038254499177" fill="green" r="3"></circle><circle cx="20.191263984780665" cy="512.9867224792825" fill="red" r="3"></circle><circle cx="376.6977130906179" cy="144.75659785379517" fill="blue" r="3"></circle><circle cx="278.9527574033866" cy="439.65303342700645" fill="blueviolet" r="3"></circle><circle cx="355.658181897069" cy="431.71043267182256" fill="blueviolet" r="3"></circle><circle cx="468.0573420465766" cy="550.2116208999516" fill="darkred" r="3"></circle><circle cx="536.6055575529973" cy="341.3009430758317" fill="green" r="3"></circle><circle cx="19.044298122147005" cy="464.41285378656903" fill="red" r="3"></circle><circle cx="344.2287671803897" cy="156.47482777054202" fill="blue" r="3"></circle><circle cx="221.55515685034015" cy="474.7104784709736" fill="black" r="3"></circle><circle cx="420.54945287843486" cy="469.28446624604584" fill="blueviolet" r="3"></circle><circle cx="458.21988705223896" cy="617.586402353949" fill="darkred" r="3"></circle><circle cx="549.0329613580059" cy="280.66448071047785" fill="green" r="3"></circle><circle cx="-10.87320563861567" cy="508.0854872767885" fill="red" r="3"></circle><circle cx="365.7904262168179" cy="24.32187750768251" fill="blue" r="3"></circle><circle cx="243.9787256734308" cy="518.4222065658961" fill="black" r="3"></circle><circle cx="380.8665825951889" cy="447.9095228387814" fill="blueviolet" r="3"></circle><circle cx="472.03940187063165" cy="539.0197117311959" fill="darkred" r="3"></circle><circle cx="604.1443650713221" cy="299.1053077634302" fill="green" r="3"></circle><circle cx="86.9858839141062" cy="534.9754780311206" fill="red" r="3"></circle><circle cx="366.70791720532293" cy="72.81969155485999" fill="blue" r="3"></circle><circle cx="149.06824393512994" cy="481.1333495868539" fill="black" r="3"></circle><circle cx="334.0416665891852" cy="470.11550594049675" fill="blueviolet" r="3"></circle><circle cx="518.3094135358729" cy="544.9972430099957" fill="darkred" r="3"></circle><circle cx="511.95439808978784" cy="353.4230629628846" fill="green" r="3"></circle><circle cx="18.402158508587984" cy="575.9318191860439" fill="red" r="3"></circle><circle cx="312.05964215827805" cy="68.6535733753386" fill="blue" r="3"></circle><circle cx="230.04651007201988" cy="522.2990272225895" fill="black" r="3"></circle><circle cx="277.99114561437426" cy="499.6661011382" fill="black" r="3"></circle><circle cx="462.48969775977605" cy="517.8739430704529" fill="darkred" r="3"></circle><circle cx="572.322963801477" cy="351.09058051668944" fill="green" r="3"></circle><circle cx="40.592012557059945" cy="476.78646945153537" fill="red" r="3"></circle><circle cx="378.24416743889753" cy="65.09858400004113" fill="blue" r="3"></circle><circle cx="256.9909951430083" cy="496.46713520681396" fill="black" r="3"></circle><circle cx="375.21187904741464" cy="491.29461025479634" fill="blueviolet" r="3"></circle><circle cx="533.2647385430387" cy="579.3440272362785" fill="darkred" r="3"></circle><circle cx="545.2320849062809" cy="360.2645972346206" fill="green" r="3"></circle><circle cx="68.02158902119274" cy="466.5284870583853" fill="red" r="3"></circle><circle cx="392.1580062051467" cy="52.99581888194864" fill="blue" r="3"></circle><circle cx="236.01021004818432" cy="533.9201290748347" fill="black" r="3"></circle><circle cx="391.41390803595823" cy="502.57808245360417" fill="blueviolet" r="3"></circle><circle cx="458.4014795550046" cy="575.2297312962999" fill="darkred" r="3"></circle><circle cx="555.5143927227765" cy="296.7791137258992" fill="green" r="3"></circle><circle cx="3.7014021184989403" cy="479.14213251682725" fill="red" r="3"></circle><circle cx="343.84376800995153" cy="53.37053697491139" fill="blue" r="3"></circle><circle cx="248.45716245467432" cy="426.8978936989033" fill="black" r="3"></circle><circle cx="353.20721463422205" cy="469.92440108383397" fill="blueviolet" r="3"></circle><circle cx="524.596447506279" cy="462.11792273100605" fill="darkred" r="3"></circle><circle cx="613.5126300772978" cy="378.20391331573614" fill="green" r="3"></circle><circle cx="52.63156510282431" cy="501.85828401719255" fill="red" r="3"></circle><circle cx="448.2251389347174" cy="110.07197698541313" fill="blue" r="3"></circle><circle cx="190.47689923879946" cy="490.71693093047577" fill="black" r="3"></circle><circle cx="375.2124526511331" cy="452.6617210143638" fill="blueviolet" r="3"></circle><circle cx="467.3723101580526" cy="592.6109273474017" fill="darkred" r="3"></circle><circle cx="536.4578303800936" cy="357.8875872777918" fill="green" r="3"></circle><circle cx="-43.22871766990544" cy="509.2773980149254" fill="red" r="3"></circle><circle cx="364.9797028898242" cy="92.94148593035007" fill="blue" r="3"></circle><circle cx="164.79162954107863" cy="568.195829488661" fill="black" r="3"></circle><circle cx="342.16760711408216" cy="390.59503620781624" fill="blueviolet" r="3"></circle><circle cx="426.6814982469086" cy="562.0210492077438" fill="darkred" r="3"></circle><circle cx="594.6109101766175" cy="288.8024488305579" fill="green" r="3"></circle><circle cx="-58.81267461471215" cy="494.36967942221537" fill="red" r="3"></circle><circle cx="369.3673111039151" cy="41.69022058897345" fill="blue" r="3"></circle><circle cx="278.95300733388467" cy="539.0486933217005" fill="black" r="3"></circle><circle cx="350.393181029099" cy="467.30356950342764" fill="blueviolet" r="3"></circle><circle cx="494.8714402446121" cy="552.81393453654" fill="darkred" r="3"></circle><circle cx="628.402755791601" cy="314.36930053720914" fill="green" r="3"></circle><circle cx="52.92601228588956" cy="472.87921054110143" fill="red" r="3"></circle><circle cx="296.44414418087183" cy="13.51585681433339" fill="blue" r="3"></circle><circle cx="186.53926252974438" cy="564.869005395136" fill="black" r="3"></circle><circle cx="368.0963742568951" cy="380.4693231883026" fill="blueviolet" r="3"></circle><circle cx="468.9281922406774" cy="577.774348452966" fill="darkred" r="3"></circle><circle cx="591.1416413420386" cy="315.56251527574557" fill="green" r="3"></circle><circle cx="30.15417050261594" cy="528.688365481917" fill="red" r="3"></circle><circle cx="321.2839352375134" cy="4.993640241879572" fill="blue" r="3"></circle><circle cx="172.9694035753235" cy="488.7225697147176" fill="black" r="3"></circle><circle cx="362.3178388754756" cy="465.70018601377075" fill="blueviolet" r="3"></circle><circle cx="462.8133532450757" cy="531.2738286674638" fill="darkred" r="3"></circle><circle cx="618.5034027840695" cy="393.9406098741788" fill="green" r="3"></circle><circle cx="90.01168064169774" cy="445.656136600278" fill="red" r="3"></circle><circle cx="386.62958320649034" cy="-11.08116242266761" fill="blue" r="3"></circle><circle cx="163.86361025172482" cy="525.1424206438811" fill="black" r="3"></circle><circle cx="336.24294041996546" cy="452.2609394376925" fill="blueviolet" r="3"></circle><circle cx="550.1355970518554" cy="522.622475781178" fill="darkred" r="3"></circle><circle cx="603.0406017394225" cy="388.74341084444495" fill="green" r="3"></circle><circle cx="-23.048473802706155" cy="479.477323220112" fill="red" r="3"></circle><circle cx="357.67012476538093" cy="7.4395443459811545" fill="blue" r="3"></circle><circle cx="192.3251774159109" cy="478.2101172720423" fill="black" r="3"></circle><circle cx="337.16220412712164" cy="497.72986361173884" fill="blueviolet" r="3"></circle><circle cx="382.68656069812573" cy="560.8132247422568" fill="darkred" r="3"></circle><circle cx="504.6510508043005" cy="307.5110442862472" fill="green" r="3"></circle><circle cx="14.325601303823438" cy="392.69981870040584" fill="red" r="3"></circle><circle cx="367.08992005177606" cy="44.65114297575929" fill="blue" r="3"></circle><circle cx="239.94809433109265" cy="566.0134304667178" fill="black" r="3"></circle><circle cx="435.6237752266848" cy="439.9597647352515" fill="blueviolet" r="3"></circle><circle cx="380.6521472019536" cy="507.4566498484477" fill="blueviolet" r="3"></circle><circle cx="573.6583219148697" cy="366.51841676130283" fill="green" r="3"></circle><circle cx="42.385135473944565" cy="454.2852547193185" fill="red" r="3"></circle><circle cx="439.5009606419645" cy="66.13451792942104" fill="blue" r="3"></circle><circle cx="245.36370675999504" cy="558.8564405370973" fill="black" r="3"></circle><circle cx="340.81400877297114" cy="495.8824527895868" fill="blueviolet" r="3"></circle><circle cx="396.63799889630843" cy="513.851817652713" fill="blueviolet" r="3"></circle><circle cx="600.1429915258436" cy="450.35543877290434" fill="green" r="3"></circle><circle cx="30.6397302832319" cy="484.58835550464323" fill="red" r="3"></circle><circle cx="363.41437541162657" cy="73.4876949143221" fill="blue" r="3"></circle><circle cx="232.57757329787916" cy="501.47577853502366" fill="black" r="3"></circle><circle cx="356.91205906421396" cy="432.10861919879136" fill="blueviolet" r="3"></circle><circle cx="484.7574626356907" cy="599.1570670299491" fill="darkred" r="3"></circle><circle cx="527.8601977489884" cy="380.69680809400825" fill="green" r="3"></circle><circle cx="48.780384463793155" cy="481.9373717150893" fill="red" r="3"></circle><circle cx="426.2647000955128" cy="87.81644630987174" fill="blue" r="3"></circle><circle cx="157.8512369300883" cy="510.39990004272875" fill="black" r="3"></circle><circle cx="321.653880589242" cy="469.867931866104" fill="blueviolet" r="3"></circle><circle cx="451.21431582303643" cy="548.2822529783771" fill="darkred" r="3"></circle><circle cx="561.1773070614106" cy="392.7127186792701" fill="green" r="3"></circle><circle cx="15.228373942109199" cy="489.6169414548243" fill="red" r="3"></circle><circle cx="347.38147439605825" cy="16.373701891044394" fill="blue" r="3"></circle><circle cx="187.53499923080608" cy="495.0420644638998" fill="black" r="3"></circle><circle cx="319.6765644277173" cy="517.7307575780397" fill="blueviolet" r="3"></circle><circle cx="549.7260434755759" cy="568.9343656766856" fill="darkred" r="3"></circle><circle cx="581.1491367646089" cy="395.2657391229226" fill="green" r="3"></circle><circle cx="-17.20993749640986" cy="537.3700928824187" fill="red" r="3"></circle><circle cx="322.41848302622617" cy="91.71260258946694" fill="blue" r="3"></circle><circle cx="144.5444299819752" cy="520.4338531735227" fill="black" r="3"></circle><circle cx="331.00427056301424" cy="482.034631636404" fill="blueviolet" r="3"></circle><circle cx="461.8725666274793" cy="541.9167703459957" fill="darkred" r="3"></circle><circle cx="609.0961604133611" cy="363.56987244407367" fill="green" r="3"></circle><circle cx="-21.378005372671357" cy="547.630395048589" fill="red" r="3"></circle><circle cx="290.65480932603873" cy="61.93711566711513" fill="blue" r="3"></circle><circle cx="203.49570947617622" cy="513.1678163333713" fill="black" r="3"></circle><circle cx="354.2269670447784" cy="467.16853546386926" fill="blueviolet" r="3"></circle><circle cx="537.454615933463" cy="569.4136947409734" fill="darkred" r="3"></circle><circle cx="570.8243777180998" cy="369.12002196783453" fill="green" r="3"></circle><circle cx="46.60004667371515" cy="537.7942763077064" fill="red" r="3"></circle><circle cx="407.0635526476675" cy="111.81191129109223" fill="blue" r="3"></circle><circle cx="203.23984864471936" cy="597.0574015909577" fill="black" r="3"></circle><circle cx="351.11557070566636" cy="448.0437377636382" fill="blueviolet" r="3"></circle><circle cx="408.7370621388336" cy="539.9983944231794" fill="darkred" r="3"></circle><circle cx="628.0545306476088" cy="372" fill="green" r="3"></circle><circle cx="29.644351056144835" cy="542.2221849029715" fill="red" r="3"></circle><circle cx="372.44182843267197" cy="63.050785913879835" fill="blue" r="3"></circle><circle cx="265.32792351734827" cy="519.979841951265" fill="black" r="3"></circle><circle cx="344.6632367497139" cy="384.2086712249918" fill="blueviolet" r="3"></circle><circle cx="556.7312303951625" cy="511.5238514895424" fill="darkred" r="3"></circle><circle cx="612.1853117669589" cy="410.0969707638249" fill="green" r="3"></circle><circle cx="33.90697050091984" cy="385.3014201675018" fill="red" r="3"></circle><circle cx="361.2951324164882" cy="78.65970763069875" fill="blue" r="3"></circle><circle cx="197.21374307795813" cy="485.6188908364508" fill="black" r="3"></circle><circle cx="301.9534170973485" cy="474.9787571913607" fill="blueviolet" r="3"></circle><circle cx="470.4019308663894" cy="533.1860809851526" fill="darkred" r="3"></circle><circle cx="574.4702175971511" cy="367.26504168915864" fill="green" r="3"></circle><circle cx="62.4178316011686" cy="502.61486940515164" fill="red" r="3"></circle><circle cx="343.25853490698285" cy="31.232410412688644" fill="blue" r="3"></circle><circle cx="270.867795461824" cy="579.0213842613648" fill="black" r="3"></circle><circle cx="312.98159722252063" cy="521.4905586827854" fill="blueviolet" r="3"></circle><circle cx="410.68321458224" cy="522.5692412656948" fill="darkred" r="3"></circle><circle cx="595.3787712971005" cy="420.4776482900708" fill="green" r="3"></circle><circle cx="36.06798597452594" cy="479.09808279675156" fill="red" r="3"></circle><circle cx="331.5695578900443" cy="4.791019865497091" fill="blue" r="3"></circle><circle cx="283.1624060346533" cy="463.4613329906344" fill="blueviolet" r="3"></circle><circle cx="357.6270003512438" cy="431.96887667081893" fill="blueviolet" r="3"></circle><circle cx="440.37463084631645" cy="560.9649505248616" fill="darkred" r="3"></circle><circle cx="567.7170370695811" cy="387.52348918981255" fill="green" r="3"></circle><circle cx="3.0625667485946906" cy="490.21971527257944" fill="red" r="3"></circle><circle cx="378.60552435011675" cy="38.34962837363469" fill="blue" r="3"></circle><circle cx="253.31674947156426" cy="440.3690904951148" fill="black" r="3"></circle><circle cx="282.88893660195924" cy="456.353572862321" fill="blueviolet" r="3"></circle><circle cx="459.6230161369318" cy="540.8783671461659" fill="darkred" r="3"></circle><circle cx="575.0743391359302" cy="362.904107636772" fill="green" r="3"></circle><circle cx="15.405512783575631" cy="454.3748961940887" fill="red" r="3"></circle><circle cx="268.36256999467753" cy="78.92246413932871" fill="blue" r="3"></circle><circle cx="310.1669308179713" cy="504.2899152437953" fill="blueviolet" r="3"></circle><circle cx="280.4810267947279" cy="429.9402982730978" fill="blueviolet" r="3"></circle><circle cx="542.351089747767" cy="522.6742593474762" fill="darkred" r="3"></circle><circle cx="614.5043498834427" cy="364.0408837318863" fill="green" r="3"></circle><circle cx="117.47226020614502" cy="449.0712143831536" fill="red" r="3"></circle><circle cx="331.45499135896375" cy="7.4111796643758865" fill="blue" r="3"></circle><circle cx="217.91122406292124" cy="496.3064875155781" fill="black" r="3"></circle><circle cx="350.98521121618325" cy="435.9727539123536" fill="blueviolet" r="3"></circle><circle cx="437.02588731073934" cy="543.5599734302016" fill="darkred" r="3"></circle><circle cx="550.989073449728" cy="371.1580813009572" fill="green" r="3"></circle><circle cx="78.40367880459021" cy="521.1111896106293" fill="red" r="3"></circle><circle cx="320.6641873152153" cy="138.64537908888485" fill="blue" r="3"></circle><circle cx="259.95786500783976" cy="549.2578368286108" fill="black" r="3"></circle><circle cx="319.82253344682096" cy="505.03034181402694" fill="blueviolet" r="3"></circle><circle cx="383.1206475259214" cy="554.8283961218833" fill="darkred" r="3"></circle><circle cx="622.0627465425771" cy="422.4758432546735" fill="green" r="3"></circle><circle cx="26.63735433627859" cy="470.0822693421535" fill="red" r="3"></circle><circle cx="320.58493296963104" cy="62.20592263264772" fill="blue" r="3"></circle><circle cx="193.7310980078231" cy="513.2642528794006" fill="black" r="3"></circle><circle cx="291.88249798435555" cy="516.9005077222753" fill="black" r="3"></circle><circle cx="439.23800704423485" cy="534.2409842805416" fill="darkred" r="3"></circle><circle cx="573.5506433553862" cy="396.14840709802183" fill="green" r="3"></circle><circle cx="30.243252212566457" cy="443.1188290875695" fill="red" r="3"></circle><circle cx="366.05166908598403" cy="72.09072779704302" fill="blue" r="3"></circle><circle cx="157.58255710607673" cy="579.589163579161" fill="black" r="3"></circle><circle cx="370.11386066105416" cy="464.0451778624076" fill="blueviolet" r="3"></circle><circle cx="445.88716022398614" cy="509.87381522454183" fill="darkred" r="3"></circle><circle cx="529.040379072934" cy="374.90402468615423" fill="green" r="3"></circle><circle cx="18.077820871031815" cy="452.08600904989987" fill="red" r="3"></circle><circle cx="354.47409724681825" cy="60.21582610511821" fill="blue" r="3"></circle><circle cx="134.2506787605197" cy="505.16453850749747" fill="black" r="3"></circle><circle cx="309.57340785037934" cy="481.4315771606518" fill="blueviolet" r="3"></circle><circle cx="527.7057254136569" cy="603.7029760656609" fill="darkred" r="3"></circle><circle cx="633.6460945946083" cy="394.24891969588225" fill="green" r="3"></circle><circle cx="-46.10307490398178" cy="534.2670722878638" fill="red" r="3"></circle><circle cx="462.9225359999215" cy="78.87471473141723" fill="blue" r="3"></circle><circle cx="313.74956373634495" cy="506.09176260774973" fill="blueviolet" r="3"></circle><circle cx="402.7138667277948" cy="414.00942426264413" fill="blueviolet" r="3"></circle><circle cx="413.9294879639683" cy="591.8288475831912" fill="darkred" r="3"></circle><circle cx="562.3438247760682" cy="338.64856912845977" fill="green" r="3"></circle><circle cx="3.805441133136087" cy="489.0605019710224" fill="red" r="3"></circle><circle cx="344.56012475782506" cy="41.07275832979474" fill="blue" r="3"></circle><circle cx="232.08131489923392" cy="543.7575762523197" fill="black" r="3"></circle><circle cx="390.0263134418189" cy="433.916894480684" fill="blueviolet" r="3"></circle><circle cx="453.0616649384014" cy="542.0102885949071" fill="darkred" r="3"></circle><circle cx="594.1212994514755" cy="319.298197555099" fill="green" r="3"></circle><circle cx="52.968245887656025" cy="513.8575990186273" fill="red" r="3"></circle><circle cx="351.4044087265588" cy="-3.7920113579949053" fill="blue" r="3"></circle><circle cx="225.61934517337733" cy="474.6459143551514" fill="black" r="3"></circle><circle cx="288.10180577341526" cy="517.4623719901364" fill="black" r="3"></circle><circle cx="483.9182031994117" cy="495.285076991306" fill="darkred" r="3"></circle><circle cx="613.0284475065421" cy="376.5876224645808" fill="green" r="3"></circle><circle cx="35.74587947086986" cy="422.18747435050255" fill="red" r="3"></circle><circle cx="367.639117268619" cy="83.87475980879235" fill="blue" r="3"></circle><circle cx="289.25153698076247" cy="436.9658415214781" fill="blueviolet" r="3"></circle><circle cx="359.505251935725" cy="483.6897260412532" fill="blueviolet" r="3"></circle><circle cx="379.1407673404044" cy="522.1308259938303" fill="blueviolet" r="3"></circle><circle cx="584.2868934111716" cy="366.86382533439144" fill="green" r="3"></circle><circle cx="83.26906481769652" cy="491.51535532966506" fill="red" r="3"></circle><circle cx="417.2940728825729" cy="119.99855550205959" fill="blue" r="3"></circle><circle cx="231.54532023233185" cy="526.2888219162727" fill="black" r="3"></circle><circle cx="331.3915674607467" cy="440.55760018724243" fill="blueviolet" r="3"></circle><circle cx="493.3570342981757" cy="605.435073140883" fill="darkred" r="3"></circle><circle cx="560.7832413738473" cy="389.60424100906425" fill="green" r="3"></circle><circle cx="33.120854247295824" cy="463.4793320678185" fill="red" r="3"></circle><circle cx="328.3090257871512" cy="62.46380018677045" fill="blue" r="3"></circle><circle cx="166.89617320193855" cy="457.7989964359324" fill="black" r="3"></circle><circle cx="281.0725940502416" cy="490.07218886730084" fill="black" r="3"></circle><circle cx="438.42159607040696" cy="604.6794552353124" fill="darkred" r="3"></circle><circle cx="518.3020679760317" cy="398.19610291407935" fill="green" r="3"></circle><circle cx="2.195334128361104" cy="479.10213057120325" fill="red" r="3"></circle><circle cx="333.84254301967076" cy="65.06501911816977" fill="blue" r="3"></circle><circle cx="273.4361668365084" cy="599.1733250428331" fill="black" r="3"></circle><circle cx="339.7142277448916" cy="486.53510634638286" fill="blueviolet" r="3"></circle><circle cx="483.8644334123218" cy="563.5753033280147" fill="darkred" r="3"></circle><circle cx="554.1582397910167" cy="362.69685574842197" fill="green" r="3"></circle><circle cx="35.8531757759832" cy="480.56969447431527" fill="red" r="3"></circle><circle cx="316.45491202121497" cy="111.45897170980857" fill="blue" r="3"></circle><circle cx="205.52921605554542" cy="425.4921367926601" fill="black" r="3"></circle><circle cx="358.7431737315068" cy="480.43943319062714" fill="blueviolet" r="3"></circle><circle cx="436.94103991513686" cy="564.2936827875676" fill="darkred" r="3"></circle><circle cx="563.6775060951804" cy="390.34662137542836" fill="green" r="3"></circle><circle cx="45.33911880522062" cy="474.2912424034722" fill="red" r="3"></circle><circle cx="286.9948498848572" cy="121.25962914603122" fill="blue" r="3"></circle><circle cx="217.36801927891628" cy="513.5093933612247" fill="black" r="3"></circle><circle cx="292.85292513792376" cy="467.99833762708784" fill="blueviolet" r="3"></circle><circle cx="535.9124204357738" cy="580.8057665288161" fill="darkred" r="3"></circle><circle cx="642.1747821758063" cy="350.30430569332975" fill="green" r="3"></circle><circle cx="15.046717118818904" cy="464.7761628683851" fill="red" r="3"></circle><circle cx="373.2547212593782" cy="44.8476423726613" fill="blue" r="3"></circle><circle cx="228.2959656559721" cy="515.8400156799869" fill="black" r="3"></circle><circle cx="441.95022540687916" cy="485.6644762160138" fill="darkred" r="3"></circle><circle cx="494.29504909631316" cy="569.16521153228" fill="darkred" r="3"></circle><circle cx="570.5544030368086" cy="373.5209615546291" fill="green" r="3"></circle><circle cx="99.62598017666085" cy="515.1268011106735" fill="red" r="3"></circle><circle cx="411.66019815274194" cy="23.63565754477461" fill="blue" r="3"></circle><circle cx="218.89210201701678" cy="517.2982993721474" fill="black" r="3"></circle><circle cx="360.71647907683274" cy="507.1405099713975" fill="blueviolet" r="3"></circle><circle cx="455.94642509709274" cy="611.8207308866613" fill="darkred" r="3"></circle><circle cx="578.1700184496299" cy="360.2154226444348" fill="green" r="3"></circle><circle cx="5.943716656949778" cy="493.59492762068163" fill="red" r="3"></circle><circle cx="350.69165350509024" cy="-7.49320789254817" fill="blue" r="3"></circle><circle cx="203.00861418080848" cy="500.72238855597107" fill="black" r="3"></circle><circle cx="405.4804172527665" cy="426.2396207246938" fill="blueviolet" r="3"></circle><circle cx="422.08750896373516" cy="524.0329384668768" fill="darkred" r="3"></circle><circle cx="618.6417135751849" cy="354.5131797538787" fill="green" r="3"></circle><circle cx="34.75872153619693" cy="486.76663107843075" fill="red" r="3"></circle><circle cx="357.5904973716929" cy="76.26121873124868" fill="blue" r="3"></circle><circle cx="208.57545756399304" cy="450.3277650387486" fill="black" r="3"></circle><circle cx="374.80939875248754" cy="483.42644193019504" fill="blueviolet" r="3"></circle><circle cx="444.4902840491334" cy="490.60906699023104" fill="darkred" r="3"></circle><circle cx="604.9358067510708" cy="377.2959004508119" fill="green" r="3"></circle><circle cx="82.3550574968507" cy="461.45719949322256" fill="red" r="3"></circle><circle cx="370.95197220618815" cy="69.91670058540726" fill="blue" r="3"></circle><circle cx="217.87333848430177" cy="545.3855601005813" fill="black" r="3"></circle><circle cx="317.9558771363462" cy="455.35934298427185" fill="blueviolet" r="3"></circle><circle cx="472.4997920695279" cy="532.9256992442317" fill="darkred" r="3"></circle><circle cx="561.969132929087" cy="372.7124644497158" fill="green" r="3"></circle><circle cx="34.57113369155959" cy="480.4994439267304" fill="red" r="3"></circle><circle cx="364.73529269210997" cy="75.2872577481808" fill="blue" r="3"></circle><circle cx="240.75573740253077" cy="573.9118156095589" fill="black" r="3"></circle><circle cx="298.777299653833" cy="497.49325751176156" fill="blueviolet" r="3"></circle><circle cx="415.0865035675316" cy="576.0245524696311" fill="darkred" r="3"></circle><circle cx="608.3021884229254" cy="404.78842117676504" fill="green" r="3"></circle><circle cx="53.33466158722157" cy="508.07825477545515" fill="red" r="3"></circle><circle cx="423.1328827593836" cy="64.37125144235685" fill="blue" r="3"></circle><circle cx="203.98960346763857" cy="489.64675937499425" fill="black" r="3"></circle><circle cx="333.39437154218155" cy="458.53028264752885" fill="blueviolet" r="3"></circle><circle cx="464.9968216912004" cy="540.427278745548" fill="darkred" r="3"></circle><circle cx="567.9290261248549" cy="375.6362502519321" fill="green" r="3"></circle><circle cx="31.338862773974455" cy="474.8840465529978" fill="red" r="3"></circle><circle cx="376.3125389701141" cy="63.636588482188685" fill="blue" r="3"></circle><circle cx="221.9583278183033" cy="545.9387274692717" fill="black" r="3"></circle><circle cx="262.50664502440725" cy="423.7206428201164" fill="blueviolet" r="3"></circle><circle cx="482.11254280654293" cy="508.0603384810405" fill="darkred" r="3"></circle><circle cx="582.4775841586556" cy="408.21101422177446" fill="green" r="3"></circle><circle cx="48.04796069326813" cy="567.2827357489004" fill="red" r="3"></circle><circle cx="459.7139426708416" cy="38.30959829350358" fill="blue" r="3"></circle><circle cx="229.26489169084917" cy="513.9101398432778" fill="black" r="3"></circle><circle cx="332.450449683299" cy="387.2542684886204" fill="blueviolet" r="3"></circle><circle cx="478.0845419567221" cy="456.4897200112476" fill="darkred" r="3"></circle><circle cx="537.9841646091488" cy="359.1920093071718" fill="green" r="3"></circle><circle cx="64.06983930017732" cy="470.46646897834967" fill="red" r="3"></circle><circle cx="430.19543860746705" cy="-1.0103525978044132" fill="blue" r="3"></circle><circle cx="279.91371095402985" cy="496.2923346841062" fill="black" r="3"></circle><circle cx="341.77733057638306" cy="505.6675129692296" fill="blueviolet" r="3"></circle><circle cx="496.2435242676582" cy="500.35453476621024" fill="darkred" r="3"></circle><circle cx="477.04751638471885" cy="362.92091052473" fill="green" r="3"></circle><circle cx="63.2438477887558" cy="489.52369796638266" fill="red" r="3"></circle><circle cx="337.2734497538074" cy="18.289954302991553" fill="blue" r="3"></circle><circle cx="179.2328949857241" cy="523.3910758055539" fill="black" r="3"></circle><circle cx="372.092960452136" cy="453.27260720496577" fill="blueviolet" r="3"></circle><circle cx="419.0233216227424" cy="521.0158433613645" fill="darkred" r="3"></circle><circle cx="540.259123024448" cy="322.85863552649084" fill="green" r="3"></circle><circle cx="93.14580301910684" cy="472.3695262464982" fill="red" r="3"></circle><circle cx="353.1369917607393" cy="68.98676149291792" fill="blue" r="3"></circle><circle cx="205.09575641215787" cy="611.8618997648646" fill="black" r="3"></circle><circle cx="265.5741417012336" cy="433.3204385859377" fill="blueviolet" r="3"></circle><circle cx="405.62584586528845" cy="589.1241530820932" fill="darkred" r="3"></circle><circle cx="582.3333314574228" cy="276.43357261400456" fill="green" r="3"></circle><circle cx="-3.132575289887164" cy="504.3991201016592" fill="red" r="3"></circle><circle cx="353.0367238179149" cy="52.57472292979196" fill="blue" r="3"></circle><circle cx="227.3588048597076" cy="536.6904539716866" fill="black" r="3"></circle><circle cx="361.45287541394913" cy="381.8298774264359" fill="blueviolet" r="3"></circle><circle cx="546.5343805728819" cy="541.4966557867529" fill="darkred" r="3"></circle><circle cx="573.6561982901562" cy="394.13611357006226" fill="green" r="3"></circle><circle cx="31.080473851454595" cy="448.4825718631036" fill="red" r="3"></circle><circle cx="417.92651807398073" cy="69.70194837865768" fill="blue" r="3"></circle><circle cx="252.44816577054962" cy="501.6436968594699" fill="black" r="3"></circle><circle cx="288.3630277094643" cy="426.26284704033105" fill="blueviolet" r="3"></circle><circle cx="502.16439421517896" cy="577.5839311757761" fill="darkred" r="3"></circle><circle cx="575.5797410610609" cy="378.0163501850524" fill="green" r="3"></circle><circle cx="34.18533103815032" cy="397.89577087718965" fill="red" r="3"></circle><circle cx="367.85380183080815" cy="65.73319509234562" fill="blue" r="3"></circle><circle cx="248.81102515430044" cy="536.9039633153614" fill="black" r="3"></circle><circle cx="355.604780309908" cy="453.7823689224353" fill="blueviolet" r="3"></circle><circle cx="553.8258498257719" cy="523.5779509846616" fill="darkred" r="3"></circle><circle cx="637.6498203880644" cy="409.3482935641438" fill="green" r="3"></circle><circle cx="-41.376000687945265" cy="458.9589131511217" fill="red" r="3"></circle><circle cx="436.83709293326535" cy="89.25683168882298" fill="blue" r="3"></circle><circle cx="215.45274555602595" cy="514.7744529103998" fill="black" r="3"></circle><circle cx="343.98415276190156" cy="463.89416610547323" fill="blueviolet" r="3"></circle><circle cx="505.95602953386873" cy="481.1601930218643" fill="darkred" r="3"></circle><circle cx="559.6001248814229" cy="360.5853442236791" fill="green" r="3"></circle><circle cx="128.70120418078403" cy="448.5153236414766" fill="red" r="3"></circle><circle cx="347.25384814803886" cy="36.95031028846415" fill="blue" r="3"></circle><circle cx="312.82870388624315" cy="466.1874046732714" fill="blueviolet" r="3"></circle><circle cx="315.36036433414614" cy="451.8212659092113" fill="blueviolet" r="3"></circle><circle cx="521.7432800481057" cy="489.7695674320755" fill="darkred" r="3"></circle><circle cx="477.6144280778935" cy="373.63287299378476" fill="green" r="3"></circle><circle cx="96.4460044177672" cy="559.4420683861956" fill="red" r="3"></circle><circle cx="438.20056267504157" cy="48.89530314782829" fill="blue" r="3"></circle><circle cx="220.8005440497613" cy="493.15438254624917" fill="black" r="3"></circle><circle cx="348.4997449475077" cy="455.46013242374613" fill="blueviolet" r="3"></circle><circle cx="463.3231179476271" cy="537.628274714582" fill="darkred" r="3"></circle><circle cx="608.0386140285193" cy="300.88433867645693" fill="green" r="3"></circle><circle cx="16.151079482251397" cy="434.51842186278475" fill="red" r="3"></circle><circle cx="397.4467938543361" cy="75.91695541099742" fill="blue" r="3"></circle><circle cx="258.50943750719694" cy="553.2813097586985" fill="black" r="3"></circle><circle cx="296.1521412897347" cy="536.1375639908226" fill="black" r="3"></circle><circle cx="469.36213379078976" cy="519.2350797692342" fill="darkred" r="3"></circle><circle cx="524.9053240422794" cy="415.7175265619566" fill="green" r="3"></circle><circle cx="31.374730386170995" cy="481.6167102579659" fill="red" r="3"></circle><circle cx="304.4784848584027" cy="28.943942840255055" fill="blue" r="3"></circle><circle cx="282.50147763605025" cy="554.8662577695995" fill="black" r="3"></circle><circle cx="436.713627335476" cy="509.0762842357776" fill="darkred" r="3"></circle><circle cx="506.96614956769696" cy="484.0534203675181" fill="darkred" r="3"></circle><circle cx="595.884812880732" cy="302.90064730964616" fill="green" r="3"></circle><circle cx="38.096735689318365" cy="457.50488490110655" fill="red" r="3"></circle><circle cx="388.26192312306824" cy="91.05722209666307" fill="blue" r="3"></circle><circle cx="256.5454392263044" cy="552.1692727000292" fill="black" r="3"></circle><circle cx="306.4150377052924" cy="505.5525276283442" fill="blueviolet" r="3"></circle><circle cx="469.8391036754216" cy="544.6973552750774" fill="darkred" r="3"></circle><circle cx="588.5584618166889" cy="379.61558578998444" fill="green" r="3"></circle><circle cx="-61.43308705488756" cy="462.5721269172509" fill="red" r="3"></circle><circle cx="402.4168068941036" cy="68.44411399746565" fill="blue" r="3"></circle><circle cx="165.0895504898351" cy="520.4603317672272" fill="black" r="3"></circle><circle cx="356.1391735799655" cy="484.2405046012416" fill="blueviolet" r="3"></circle><circle cx="467.9799540578289" cy="526.2987317180229" fill="darkred" r="3"></circle><circle cx="535.1250291655117" cy="371.0737027172117" fill="green" r="3"></circle><circle cx="35.66385083563317" cy="505.31640699099546" fill="red" r="3"></circle><circle cx="333.8599513540353" cy="85.18774651188595" fill="blue" r="3"></circle><circle cx="186.79398249780226" cy="522.2451277129239" fill="black" r="3"></circle><circle cx="356.10682334468305" cy="465.5630939812745" fill="blueviolet" r="3"></circle><circle cx="441.1297945376582" cy="504.0959698918639" fill="darkred" r="3"></circle><circle cx="582.5884843987319" cy="375.0667175556025" fill="green" r="3"></circle><circle cx="107.84617836266531" cy="509.48254765981585" fill="red" r="3"></circle><circle cx="335.4855364957774" cy="83.89407899765703" fill="blue" r="3"></circle><circle cx="229.69181543491624" cy="509.668016166863" fill="black" r="3"></circle><circle cx="381.3511399243073" cy="554.6948856123026" fill="darkred" r="3"></circle><circle cx="457.16366482218683" cy="544.8576404771065" fill="darkred" r="3"></circle><circle cx="577.99992585336" cy="379.7560833847476" fill="green" r="3"></circle><circle cx="96.306981290794" cy="424.56396612795055" fill="red" r="3"></circle><circle cx="363.2462103591145" cy="35.452910046801904" fill="blue" r="3"></circle><circle cx="220.01270369805036" cy="504.9030622383943" fill="black" r="3"></circle><circle cx="324.28911376314386" cy="392.75961514304964" fill="blueviolet" r="3"></circle><circle cx="555.8131715860717" cy="539.1724262311553" fill="darkred" r="3"></circle><circle cx="565.1207954540254" cy="307.2453343587823" fill="green" r="3"></circle><circle cx="-0.12295010487584612" cy="513.8000975344528" fill="red" r="3"></circle><circle cx="323.3681492830235" cy="60.40699357050036" fill="blue" r="3"></circle><circle cx="228.34671946399908" cy="514.0108626202306" fill="black" r="3"></circle><circle cx="389.47080034307703" cy="477.32836099462037" fill="blueviolet" r="3"></circle><circle cx="487.22901107533806" cy="488.53075876906234" fill="darkred" r="3"></circle><circle cx="642.6226386875179" cy="410.43228366677545" fill="green" r="3"></circle><circle cx="14.263805028532968" cy="411.025788802581" fill="red" r="3"></circle><circle cx="344.57046155620026" cy="68.16689476327436" fill="blue" r="3"></circle><circle cx="157.17376720712855" cy="562.8134999735732" fill="black" r="3"></circle><circle cx="408.9351220052394" cy="490.5194510054909" fill="blueviolet" r="3"></circle><circle cx="480.22706555226546" cy="526.2583049978638" fill="darkred" r="3"></circle><circle cx="644.7596586126081" cy="437.1491536871159" fill="green" r="3"></circle><circle cx="-49.30448978784551" cy="523.2250402681369" fill="red" r="3"></circle><circle cx="426.5480028194957" cy="118.49729798683869" fill="blue" r="3"></circle><circle cx="262.94852140344597" cy="531.0695908261505" fill="black" r="3"></circle><circle cx="325.74697806008714" cy="411.6478174142408" fill="blueviolet" r="3"></circle><circle cx="444.9565765365986" cy="551.7037756326786" fill="darkred" r="3"></circle><circle cx="621.7588942642508" cy="349.1383257978285" fill="green" r="3"></circle><circle cx="72.75313866295127" cy="451.2568194828393" fill="red" r="3"></circle><circle cx="370.1851347268041" cy="157.952735742618" fill="blue" r="3"></circle><circle cx="286.9507829875876" cy="448.9544661551734" fill="blueviolet" r="3"></circle><circle cx="323.98969982903725" cy="464.7932542043225" fill="blueviolet" r="3"></circle><circle cx="460.4443275888442" cy="590.199333081911" fill="darkred" r="3"></circle><circle cx="628.8245343989104" cy="384.1420501798514" fill="green" r="3"></circle><circle cx="51.43973152960285" cy="512.2192447253833" fill="red" r="3"></circle><circle cx="365.15630768503763" cy="71.69666173841513" fill="blue" r="3"></circle><circle cx="228.25501119623675" cy="517.1577661807232" fill="black" r="3"></circle><circle cx="396.41514475020654" cy="388.0082641641288" fill="blueviolet" r="3"></circle><circle cx="485.62791058718" cy="532.8974648796843" fill="darkred" r="3"></circle><circle cx="549.1984054356813" cy="399.33709773161365" fill="green" r="3"></circle><circle cx="33.9186644470663" cy="385.8305097446886" fill="red" r="3"></circle><circle cx="449.5160752960571" cy="108.01162600239385" fill="blue" r="3"></circle><circle cx="220.1706641991683" cy="516.834512243009" fill="black" r="3"></circle><circle cx="259.2339338681636" cy="512.9790719402372" fill="black" r="3"></circle><circle cx="531.2338911506746" cy="530.1330775616736" fill="darkred" r="3"></circle><circle cx="653.5499616715213" cy="317.83305493745695" fill="green" r="3"></circle><circle cx="1.483542289988435" cy="528.8578079437622" fill="red" r="3"></circle><circle cx="407.38332051111183" cy="120.78073613733073" fill="blue" r="3"></circle><circle cx="227.37483331376376" cy="487.7144945299717" fill="black" r="3"></circle><circle cx="287.14255155528457" cy="539.7315503254765" fill="black" r="3"></circle><circle cx="384.6493093862724" cy="542.7374656310648" fill="darkred" r="3"></circle><circle cx="592.0473649955438" cy="368.8579024410593" fill="green" r="3"></circle><circle cx="16.90590942625138" cy="478.815414364562" fill="red" r="3"></circle><circle cx="327.1009436790265" cy="-3.931813340592047" fill="blue" r="3"></circle><circle cx="202.7426701896782" cy="578.3337816183029" fill="black" r="3"></circle><circle cx="337.6006745558991" cy="456.58594753332113" fill="blueviolet" r="3"></circle><circle cx="504.779911444629" cy="478.29350829601844" fill="darkred" r="3"></circle><circle cx="623.8996429333299" cy="294.25421331650136" fill="green" r="3"></circle><circle cx="-39.86038947848314" cy="481.34079790491364" fill="red" r="3"></circle><circle cx="378.0062057246498" cy="106.84303377294827" fill="blue" r="3"></circle><circle cx="214.78225065770158" cy="550.3558929943017" fill="black" r="3"></circle><circle cx="341.2951807341288" cy="476.19251651589036" fill="blueviolet" r="3"></circle><circle cx="437.99637035715523" cy="605.8459195798583" fill="darkred" r="3"></circle><circle cx="627.1338598780529" cy="376.0525042407753" fill="green" r="3"></circle><circle cx="81.98405192525833" cy="424.81666906579244" fill="red" r="3"></circle><circle cx="456.73087293026236" cy="66.373857992283" fill="blue" r="3"></circle><circle cx="223.4411226730573" cy="530.9244140308979" fill="black" r="3"></circle><circle cx="313.5406484491334" cy="516.7769745691629" fill="blueviolet" r="3"></circle><circle cx="444.08847282254715" cy="525.4729564074452" fill="darkred" r="3"></circle><circle cx="570.1036221573331" cy="348.58648583916886" fill="green" r="3"></circle><circle cx="55.47064770055323" cy="509.74334217054593" fill="red" r="3"></circle><circle cx="414.93591884749844" cy="154.4974135221363" fill="blue" r="3"></circle><circle cx="196.9842724831599" cy="558.2935117462837" fill="black" r="3"></circle><circle cx="414.053128430935" cy="460.3676570646259" fill="blueviolet" r="3"></circle><circle cx="403.70965804422576" cy="492.7239452991811" fill="blueviolet" r="3"></circle><circle cx="585.2985812927012" cy="464.623842056879" fill="green" r="3"></circle><circle cx="63.15537467969551" cy="489.49277020700845" fill="red" r="3"></circle><circle cx="380.5565983139779" cy="94.23664518769624" fill="blue" r="3"></circle><circle cx="266.9952189174212" cy="512.1923472994918" fill="black" r="3"></circle><circle cx="315.3288582072621" cy="478.13709126037037" fill="blueviolet" r="3"></circle><circle cx="492.6658256101233" cy="581.81902363717" fill="darkred" r="3"></circle><circle cx="519.9071248578887" cy="391.5254494340886" fill="green" r="3"></circle><circle cx="50.159871079667965" cy="490.4807522251383" fill="red" r="3"></circle><circle cx="366.41124553869685" cy="66.54432434489368" fill="blue" r="3"></circle><circle cx="282.59217147102805" cy="514.5516504645399" fill="black" r="3"></circle><circle cx="311.867092998714" cy="449.28577483578437" fill="blueviolet" r="3"></circle><circle cx="413.28359821098303" cy="525.8216325575961" fill="darkred" r="3"></circle><circle cx="581.9751255637703" cy="279.20917770036317" fill="green" r="3"></circle><circle cx="-58.50813233860859" cy="475.81460884522994" fill="red" r="3"></circle><circle cx="415.61879845138697" cy="132.63218289371025" fill="blue" r="3"></circle><circle cx="257.0682344374071" cy="571.5251327565627" fill="black" r="3"></circle><circle cx="294.06707226607955" cy="440.0666551035587" fill="blueviolet" r="3"></circle><circle cx="452.9445844997915" cy="548.177324734547" fill="darkred" r="3"></circle><circle cx="562.0688329124115" cy="310.52972023940663" fill="green" r="3"></circle><circle cx="78.97979095566552" cy="406.0649037850716" fill="red" r="3"></circle><circle cx="317.02360866273267" cy="146.8113656566299" fill="blue" r="3"></circle><circle cx="302.3600968766498" cy="455.6943766723184" fill="blueviolet" r="3"></circle><circle cx="303.1418311973124" cy="393.880073255434" fill="blueviolet" r="3"></circle><circle cx="524.1742619231086" cy="536.1446284433606" fill="darkred" r="3"></circle><circle cx="509.59762748975106" cy="331.30087532321267" fill="green" r="3"></circle><circle cx="48.02746625583151" cy="386.80360902133555" fill="red" r="3"></circle><circle cx="437.7748724444581" cy="116.75456328613853" fill="blue" r="3"></circle><circle cx="200.91804423446098" cy="517.920102440218" fill="black" r="3"></circle><circle cx="298.5209897715253" cy="508.8584806474578" fill="blueviolet" r="3"></circle><circle cx="540.721588902954" cy="556.2490275947684" fill="darkred" r="3"></circle><circle cx="550.3338947961397" cy="469.4528485448292" fill="green" r="3"></circle><circle cx="108.88257253683332" cy="452.3320617902048" fill="red" r="3"></circle><circle cx="414.9028573921065" cy="93.08661601506176" fill="blue" r="3"></circle><circle cx="252.00630698802897" cy="566.0957596521031" fill="black" r="3"></circle><circle cx="340.191592350474" cy="469.7561607093548" fill="blueviolet" r="3"></circle><circle cx="434.99191846086393" cy="603.4059009965215" fill="darkred" r="3"></circle><circle cx="520.5012700030672" cy="399.32544422892136" fill="green" r="3"></circle><circle cx="25.318229539512956" cy="493.5337879466898" fill="red" r="3"></circle><circle cx="328.1039327537381" cy="87.54956354130573" fill="blue" r="3"></circle><circle cx="180.51228296279373" cy="531.6611158679749" fill="black" r="3"></circle><circle cx="340.97246135032367" cy="451.0866139461652" fill="blueviolet" r="3"></circle><circle cx="461.8944085526193" cy="547.9524102393469" fill="darkred" r="3"></circle><circle cx="523.0171616091159" cy="367.41097368287143" fill="green" r="3"></circle><circle cx="69.74231514083098" cy="426.41562059902196" fill="red" r="3"></circle><circle cx="432.5655238944354" cy="146.37250845094894" fill="blue" r="3"></circle><circle cx="243.9637831520194" cy="488.53863229543646" fill="black" r="3"></circle><circle cx="424.90094412965425" cy="429.88481735616676" fill="blueviolet" r="3"></circle><circle cx="418.501780636209" cy="477.2533689076123" fill="blueviolet" r="3"></circle><circle cx="572.9370282392383" cy="298.30251617061583" fill="green" r="3"></circle><circle cx="66.88971091921348" cy="525.4120003277491" fill="red" r="3"></circle><circle cx="358.4617180609746" cy="78.45271959399362" fill="blue" r="3"></circle><circle cx="239.32575031072952" cy="547.0713139291381" fill="black" r="3"></circle><circle cx="367.9084694738506" cy="477.2180420908138" fill="blueviolet" r="3"></circle><circle cx="446.0094196754027" cy="586.4014876416286" fill="darkred" r="3"></circle><circle cx="544.2654296284745" cy="400.75104625997994" fill="green" r="3"></circle><circle cx="6.605705026106966" cy="469.4316752923236" fill="red" r="3"></circle><circle cx="400.0580130143915" cy="91.59737944423648" fill="blue" r="3"></circle><circle cx="251.80419965677453" cy="504.72209843758696" fill="black" r="3"></circle><circle cx="427.7187015738159" cy="463.05671309841983" fill="blueviolet" r="3"></circle><circle cx="490.6558319152224" cy="610.7272343106615" fill="darkred" r="3"></circle><circle cx="584.3371791373761" cy="407.38648018326967" fill="green" r="3"></circle><circle cx="30.32073770158125" cy="505.78049324159906" fill="red" r="3"></circle><circle cx="320.60561789228234" cy="148.52174396050162" fill="blue" r="3"></circle><circle cx="203.63623563282084" cy="478.0531692512458" fill="black" r="3"></circle><circle cx="340.59849777276014" cy="467.4091249725216" fill="blueviolet" r="3"></circle><circle cx="438.3691616516939" cy="507.1691230057774" fill="darkred" r="3"></circle><circle cx="513.2026275450612" cy="369.4846691559265" fill="green" r="3"></circle><circle cx="21.619980683177634" cy="470.3107415370041" fill="red" r="3"></circle><circle cx="303.08587144541934" cy="61.89242380605151" fill="blue" r="3"></circle><circle cx="227.60478193167336" cy="518.3923626181823" fill="black" r="3"></circle><circle cx="402.73009910398116" cy="542.6355026338665" fill="darkred" r="3"></circle><circle cx="449.8538478720032" cy="552.6394667780023" fill="darkred" r="3"></circle><circle cx="486.981422799403" cy="401.01819711453" fill="green" r="3"></circle><circle cx="-3.386971914278" cy="516.8542294697479" fill="red" r="3"></circle><circle cx="452.5581239378801" cy="105.74206075219102" fill="blue" r="3"></circle><circle cx="234.96394529817275" cy="453.31626235168517" fill="black" r="3"></circle><circle cx="363.11980061541726" cy="451.98475599311746" fill="blueviolet" r="3"></circle><circle cx="411.9550100213981" cy="515.193822819321" fill="darkred" r="3"></circle><circle cx="587.4504497830059" cy="295.99376819672" fill="green" r="3"></circle><circle cx="41.637549120226666" cy="469.4602354957441" fill="red" r="3"></circle><circle cx="378.86792600151244" cy="47.942575963102335" fill="blue" r="3"></circle><circle cx="173.13317446287658" cy="585.5161897434741" fill="black" r="3"></circle><circle cx="339.35225653412016" cy="427.01511563553845" fill="blueviolet" r="3"></circle><circle cx="400.3044846480443" cy="547.682792491475" fill="darkred" r="3"></circle><circle cx="514.0448195927938" cy="343.01927488957654" fill="green" r="3"></circle><circle cx="-42.40091364464875" cy="442.8524930212232" fill="red" r="3"></circle><circle cx="356.6048582692613" cy="90.74519065392471" fill="blue" r="3"></circle><circle cx="261.51065487020276" cy="556.9486770819084" fill="black" r="3"></circle><circle cx="299.109457915667" cy="465.8348313808748" fill="blueviolet" r="3"></circle><circle cx="525.2507422352847" cy="468.0640635402742" fill="darkred" r="3"></circle><circle cx="590.6631027998438" cy="417.1533002871926" fill="green" r="3"></circle><circle cx="-18.198254040937712" cy="506.26783425792644" fill="red" r="3"></circle><circle cx="381.8271221100931" cy="117.93165924837893" fill="blue" r="3"></circle><circle cx="302.01097009220916" cy="547.9130821891104" fill="black" r="3"></circle><circle cx="346.1446631488435" cy="490.0120591267519" fill="blueviolet" r="3"></circle><circle cx="453.702420710179" cy="538.0562412021675" fill="darkred" r="3"></circle><circle cx="525.7393646995708" cy="285.60226658876184" fill="green" r="3"></circle><circle cx="41.56536803684649" cy="487.05175046020076" fill="red" r="3"></circle><circle cx="342.6406554020178" cy="102.69844882549722" fill="blue" r="3"></circle><circle cx="293.7527772035451" cy="471.69865399383957" fill="blueviolet" r="3"></circle><circle cx="355.9151818892235" cy="458.9979551017392" fill="blueviolet" r="3"></circle><circle cx="532.1813449480126" cy="497.09999043137367" fill="darkred" r="3"></circle><circle cx="599.9540679642026" cy="404.29794364422327" fill="green" r="3"></circle><circle cx="52.542194517338714" cy="561.985457292843" fill="red" r="3"></circle><circle cx="292.9146377969769" cy="16.896245873505677" fill="blue" r="3"></circle><circle cx="244.65208025814923" cy="437.09135094928956" fill="black" r="3"></circle><circle cx="423.42608232275484" cy="515.0312417113863" fill="darkred" r="3"></circle><circle cx="464.46825867650875" cy="532.6263579450691" fill="darkred" r="3"></circle><circle cx="648.4886089110237" cy="371.30761200384023" fill="green" r="3"></circle><circle cx="40.18896527439807" cy="481.4643467535999" fill="red" r="3"></circle><circle cx="407.8634181406286" cy="65.27565595698309" fill="blue" r="3"></circle><circle cx="195.9285755043587" cy="498.6625330346838" fill="black" r="3"></circle><circle cx="350.9553603711504" cy="455.12779279473716" fill="blueviolet" r="3"></circle><circle cx="499.2416732218035" cy="561.4292948022994" fill="darkred" r="3"></circle><circle cx="473.18473200204147" cy="371.99708156634955" fill="green" r="3"></circle><circle cx="84.61186279440385" cy="466.78240475585676" fill="red" r="3"></circle><circle cx="407.72686832400046" cy="39.36706163651955" fill="blue" r="3"></circle><circle cx="235.07801153824846" cy="516.1253140657758" fill="black" r="3"></circle><circle cx="400.2771674984221" cy="446.0069459376341" fill="blueviolet" r="3"></circle><circle cx="435.577606939892" cy="490.59803817303765" fill="darkred" r="3"></circle><circle cx="563.9980601825065" cy="292.34488359354714" fill="green" r="3"></circle><circle cx="62.6595724864385" cy="421.7524115866049" fill="red" r="3"></circle><circle cx="304.1764700378853" cy="17.153697815765394" fill="blue" r="3"></circle><circle cx="149.86735328327785" cy="466.31527323815976" fill="black" r="3"></circle><circle cx="375.66793124381434" cy="490.03680919664873" fill="blueviolet" r="3"></circle><circle cx="455.4057076752305" cy="559.13532639853" fill="darkred" r="3"></circle><circle cx="588.5802230296248" cy="375.83516848341964" fill="green" r="3"></circle><circle cx="34.714421427145304" cy="466.2029939555508" fill="red" r="3"></circle><circle cx="358.2739379861762" cy="80.63167183908793" fill="blue" r="3"></circle><circle cx="231.08893966462935" cy="562.4830010932876" fill="black" r="3"></circle><circle cx="386.5833582209539" cy="544.9873256249454" fill="darkred" r="3"></circle><circle cx="438.2050832046597" cy="444.15879216024524" fill="blueviolet" r="3"></circle><circle cx="473.0800662401351" cy="392.0023260520475" fill="green" r="3"></circle><circle cx="25.240275313364524" cy="475.91498442564216" fill="red" r="3"></circle><circle cx="448.0574746694922" cy="100.68503049554104" fill="blue" r="3"></circle><circle cx="228.2176715067078" cy="517.3178719563496" fill="black" r="3"></circle><circle cx="425.13933014951965" cy="485.3515705644694" fill="darkred" r="3"></circle><circle cx="486.1484850433117" cy="592.7696061527447" fill="darkred" r="3"></circle><circle cx="571.5521504391517" cy="387.20017861665025" fill="green" r="3"></circle><circle cx="93.35659214296598" cy="413.5953635508171" fill="red" r="3"></circle><circle cx="368.0245724856684" cy="69.38765114198152" fill="blue" r="3"></circle><circle cx="230.6153521297257" cy="514.6455372689134" fill="black" r="3"></circle><circle cx="407.35462173537644" cy="537.9644713291443" fill="darkred" r="3"></circle><circle cx="463.47524263378057" cy="531.5364997590956" fill="darkred" r="3"></circle><circle cx="526.3228607656295" cy="303.9723756502442" fill="green" r="3"></circle><circle cx="-4.814496058020335" cy="416.4309738565778" fill="red" r="3"></circle><circle cx="314.0612725465814" cy="-10.486650152565804" fill="blue" r="3"></circle><circle cx="254.83233949588822" cy="509.21200582267534" fill="black" r="3"></circle><circle cx="384.02609613136303" cy="512.0224454794741" fill="blueviolet" r="3"></circle><circle cx="470.8802775695664" cy="626.9643829734832" fill="darkred" r="3"></circle><circle cx="536.4804637793478" cy="335.20975363855985" fill="green" r="3"></circle><circle cx="66.18297416613699" cy="558.4593719648303" fill="red" r="3"></circle><circle cx="434.0325237903779" cy="61.07222304341043" fill="blue" r="3"></circle><circle cx="174.59874853980395" cy="494.636736373182" fill="black" r="3"></circle><circle cx="364.83195716663135" cy="464.0575461122854" fill="blueviolet" r="3"></circle><circle cx="418.3265686349266" cy="481.5348049791332" fill="blueviolet" r="3"></circle><circle cx="543.8598659707388" cy="359.04292284734584" fill="green" r="3"></circle><circle cx="34.35065150636064" cy="458.1105692075207" fill="red" r="3"></circle><circle cx="451.54513390761326" cy="94.45128599953485" fill="blue" r="3"></circle><circle cx="287.37288012815367" cy="561.5948730115126" fill="black" r="3"></circle><circle cx="383.1910728267314" cy="535.2207661857711" fill="blueviolet" r="3"></circle><circle cx="478.83995413521683" cy="515.7097559333389" fill="darkred" r="3"></circle><circle cx="573.1362266022335" cy="393.32990254498395" fill="green" r="3"></circle><circle cx="33.441108027697425" cy="456.9606196383037" fill="red" r="3"></circle><circle cx="349.9759285515454" cy="56.737174603408455" fill="blue" r="3"></circle><circle cx="215.14595116807462" cy="511.3784990596042" fill="black" r="3"></circle><circle cx="313.6615241089201" cy="474.4552320317539" fill="blueviolet" r="3"></circle><circle cx="524.9724172795029" cy="603.2536403627546" fill="darkred" r="3"></circle><circle cx="503.7105605727953" cy="323.8366818646734" fill="green" r="3"></circle><circle cx="34.52735096405604" cy="510.2259594376875" fill="red" r="3"></circle><circle cx="365.8906282518491" cy="71.01525451885132" fill="blue" r="3"></circle><circle cx="255.4243584741257" cy="497.5226664875576" fill="black" r="3"></circle><circle cx="386.48988622292524" cy="473.83466147646476" fill="blueviolet" r="3"></circle><circle cx="457.9712727119229" cy="537.0728840712371" fill="darkred" r="3"></circle><circle cx="639.2319100579396" cy="372" fill="green" r="3"></circle><circle cx="53.778238874171024" cy="448.1320182046579" fill="red" r="3"></circle><circle cx="371.1760632737751" cy="93.66644097884446" fill="blue" r="3"></circle><circle cx="227.8949293117152" cy="515.8692636885803" fill="black" r="3"></circle><circle cx="366.97086457949" cy="403.86870760756216" fill="blueviolet" r="3"></circle><circle cx="447.844463614791" cy="557.2964342554942" fill="darkred" r="3"></circle><circle cx="531.405961393416" cy="308.23040372246373" fill="green" r="3"></circle><circle cx="40.19680397330906" cy="543.154371680823" fill="red" r="3"></circle><circle cx="350.2521204516271" cy="61.78969178529092" fill="blue" r="3"></circle><circle cx="211.57514379842812" cy="525.4503955250989" fill="black" r="3"></circle><circle cx="364.77593541228725" cy="507.3875529041354" fill="blueviolet" r="3"></circle><circle cx="386.2421099075283" cy="480.7490609090741" fill="blueviolet" r="3"></circle><circle cx="577.7598358031773" cy="352.3512034247217" fill="green" r="3"></circle><circle cx="77.72350152111522" cy="398.5608573242191" fill="red" r="3"></circle><circle cx="395.5452020583041" cy="29.38348434725205" fill="blue" r="3"></circle><circle cx="210.6711527067822" cy="529.8011359551822" fill="black" r="3"></circle><circle cx="415.5787340224523" cy="447.6858748889391" fill="blueviolet" r="3"></circle><circle cx="468.856351977063" cy="581.5111473710856" fill="darkred" r="3"></circle><circle cx="624.677373069338" cy="375.8782656503672" fill="green" r="3"></circle><circle cx="79.48957632862744" cy="493.4952356873439" fill="red" r="3"></circle><circle cx="282.7217254901164" cy="21.090733547310546" fill="blue" r="3"></circle><circle cx="224.7765084082049" cy="524.3785771183709" fill="black" r="3"></circle><circle cx="302.8125170822211" cy="448.0392611479548" fill="blueviolet" r="3"></circle><circle cx="404.318306589108" cy="508.8178972483511" fill="darkred" r="3"></circle><circle cx="554.2996517502897" cy="365.39429151742127" fill="green" r="3"></circle><circle cx="120.76608106641137" cy="518.3441038873253" fill="red" r="3"></circle><circle cx="367.6498003729531" cy="125.28859271413546" fill="blue" r="3"></circle><circle cx="230.99688325097048" cy="513.6562557809973" fill="black" r="3"></circle><circle cx="410.8429447578304" cy="476.9599773925545" fill="blueviolet" r="3"></circle><circle cx="435.16268924402254" cy="609.7561856190305" fill="darkred" r="3"></circle><circle cx="516.8392546733189" cy="400.130895732266" fill="green" r="3"></circle><circle cx="129.3933576222642" cy="479.17612962395583" fill="red" r="3"></circle><circle cx="459.41152845769165" cy="55.29436970264395" fill="blue" r="3"></circle><circle cx="223.33049890002184" cy="502.04899948938544" fill="black" r="3"></circle><circle cx="302.5035617633896" cy="411.39014415068357" fill="blueviolet" r="3"></circle><circle cx="498.11399294330363" cy="608.9836961671816" fill="darkred" r="3"></circle><circle cx="549.7710854746701" cy="276.12762289834313" fill="green" r="3"></circle><circle cx="36.132091731750855" cy="474.0316876720481" fill="red" r="3"></circle><circle cx="388.6769291298474" cy="58.1381898939362" fill="blue" r="3"></circle><circle cx="205.55344691632007" cy="517.1925473710529" fill="black" r="3"></circle><circle cx="342.23961714948155" cy="464.1186534555493" fill="blueviolet" r="3"></circle><circle cx="442.6773809436977" cy="511.0453419630545" fill="darkred" r="3"></circle><circle cx="522.9190243394942" cy="416.0534774906853" fill="green" r="3"></circle><circle cx="61.00290166259036" cy="395.47731572990557" fill="red" r="3"></circle><circle cx="371.14710225274024" cy="57.48258280344554" fill="blue" r="3"></circle><circle cx="226.93886040274924" cy="517.9423334222265" fill="black" r="3"></circle><circle cx="366.62735224021526" cy="475.2613086137689" fill="blueviolet" r="3"></circle><circle cx="532.3447488236844" cy="514.7108831592259" fill="darkred" r="3"></circle><circle cx="537.7717594580367" cy="380.45725036452353" fill="green" r="3"></circle><circle cx="-5.811547741996158" cy="494.6147497940027" fill="red" r="3"></circle></svg>